<svg xmlns="http://www.w3.org/2000/svg" width="80" height="80" viewBox="0 0 80 80">
  <g id="Group_69" data-name="Group 69" transform="translate(-1058 -1394)">
    <g id="Calendar" transform="translate(1054.4 1390.4)">
      <path id="Path_223" data-name="Path 223" d="M76.933,11.6H70.267V8.933a5.333,5.333,0,1,0-10.667,0V11.6H48.933V8.933a5.333,5.333,0,1,0-10.667,0V11.6H27.6V8.933a5.333,5.333,0,0,0-10.667,0V11.6H10.267A6.667,6.667,0,0,0,3.6,18.267V71.6a6.667,6.667,0,0,0,6.667,6.667H47.6a1.333,1.333,0,1,0,0-2.667H10.267a4.012,4.012,0,0,1-4-4V30.267H80.933V52.933a1.333,1.333,0,1,0,2.667,0V18.267A6.667,6.667,0,0,0,76.933,11.6ZM62.267,8.933a2.667,2.667,0,0,1,5.333,0v8a2.667,2.667,0,1,1-5.333,0Zm-21.333,0a2.667,2.667,0,1,1,5.333,0v8a2.667,2.667,0,1,1-5.333,0Zm-21.333,0a2.667,2.667,0,0,1,5.333,0v8a2.667,2.667,0,1,1-5.333,0ZM80.933,27.6H6.267V18.267a4.012,4.012,0,0,1,4-4h6.667v2.667a5.333,5.333,0,0,0,10.667,0V14.267H38.267v2.667a5.333,5.333,0,1,0,10.667,0V14.267H59.6v2.667a5.333,5.333,0,1,0,10.667,0V14.267h6.667a4.012,4.012,0,0,1,4,4Z" fill="#b1bbcd"/>
      <path id="Path_224" data-name="Path 224" d="M50.267,51.267A2.667,2.667,0,0,0,47.6,48.6H42.267A2.667,2.667,0,0,0,39.6,51.267v4a2.667,2.667,0,0,0,2.667,2.667H47.6a2.667,2.667,0,0,0,2.667-2.667Zm-8,4v-4H47.6v4Z" transform="translate(-9.333 -11.667)" fill="#b1bbcd"/>
      <path id="Path_225" data-name="Path 225" d="M28.667,51.267A2.667,2.667,0,0,0,26,48.6H20.667A2.667,2.667,0,0,0,18,51.267v4a2.667,2.667,0,0,0,2.667,2.667H26a2.667,2.667,0,0,0,2.667-2.667Zm-8,4v-4H26v4Z" transform="translate(-3.733 -11.667)" fill="#b1bbcd"/>
      <path id="Path_226" data-name="Path 226" d="M90.8,57.933a2.667,2.667,0,0,0,2.667-2.667v-4A2.667,2.667,0,0,0,90.8,48.6H85.467A2.667,2.667,0,0,0,82.8,51.267v4a2.667,2.667,0,0,0,2.667,2.667Zm-5.333-6.667H90.8v4H85.467Z" transform="translate(-20.533 -11.667)" fill="#b1bbcd"/>
      <path id="Path_227" data-name="Path 227" d="M50.267,67.467A2.667,2.667,0,0,0,47.6,64.8H42.267A2.667,2.667,0,0,0,39.6,67.467v4a2.667,2.667,0,0,0,2.667,2.667H47.6a2.667,2.667,0,0,0,2.667-2.667Zm-8,4v-4H47.6v4Z" transform="translate(-9.333 -15.867)" fill="#b1bbcd"/>
      <path id="Path_228" data-name="Path 228" d="M28.667,67.467A2.667,2.667,0,0,0,26,64.8H20.667A2.667,2.667,0,0,0,18,67.467v4a2.667,2.667,0,0,0,2.667,2.667H26a2.667,2.667,0,0,0,2.667-2.667Zm-8,4v-4H26v4Z" transform="translate(-3.733 -15.867)" fill="#b1bbcd"/>
      <path id="Path_229" data-name="Path 229" d="M47.6,81H42.267A2.667,2.667,0,0,0,39.6,83.667v4a2.667,2.667,0,0,0,2.667,2.667H47.6a2.667,2.667,0,0,0,2.667-2.667v-4A2.667,2.667,0,0,0,47.6,81Zm-5.333,6.667v-4H47.6v4Z" transform="translate(-9.333 -20.067)" fill="#b1bbcd"/>
      <path id="Path_230" data-name="Path 230" d="M63.867,57.933H69.2a2.667,2.667,0,0,0,2.667-2.667v-4A2.667,2.667,0,0,0,69.2,48.6H63.867A2.667,2.667,0,0,0,61.2,51.267v4A2.667,2.667,0,0,0,63.867,57.933Zm0-6.667H69.2v4H63.867Z" transform="translate(-14.933 -11.667)" fill="#b1bbcd"/>
      <path id="Path_231" data-name="Path 231" d="M61.2,71.467a2.667,2.667,0,0,0,2.667,2.667,1.333,1.333,0,1,0,0-2.667v-4H69.2a1.333,1.333,0,0,0,0-2.667H63.867A2.667,2.667,0,0,0,61.2,67.467Z" transform="translate(-14.933 -15.867)" fill="#b1bbcd"/>
      <path id="Path_232" data-name="Path 232" d="M26,81H20.667A2.667,2.667,0,0,0,18,83.667v4a2.667,2.667,0,0,0,2.667,2.667H26a2.667,2.667,0,0,0,2.667-2.667v-4A2.667,2.667,0,0,0,26,81Zm-5.333,6.667v-4H26v4Z" transform="translate(-3.733 -20.067)" fill="#b1bbcd"/>
      <path id="Path_233" data-name="Path 233" d="M82.133,64.8A17.333,17.333,0,1,0,99.467,82.133,17.333,17.333,0,0,0,82.133,64.8Zm0,32A14.667,14.667,0,1,1,96.8,82.133,14.667,14.667,0,0,1,82.133,96.8Z" transform="translate(-15.867 -15.867)" fill="#b1bbcd"/>
      <path id="Path_234" data-name="Path 234" d="M92.524,80.518,82.154,90.888,77.44,86.174a1.333,1.333,0,1,0-1.885,1.885l5.656,5.657a1.333,1.333,0,0,0,1.885,0L94.41,82.4a1.333,1.333,0,1,0-1.885-1.885Z" transform="translate(-18.554 -19.84)" fill="#b1bbcd"/>
    </g>
  </g>
</svg>
